<svg width="1080" height="1080" viewBox="0 0 1080 1080" fill="none" xmlns="http://www.w3.org/2000/svg">
<g clip-path="url(#clip0_1_2)">
<rect width="1080" height="1080" rx="80" fill="white"/>
<rect width="540" height="540" fill="#1F242C"/>
<rect x="540" width="540" height="540" fill="#CED5DC"/>
<rect x="540" y="540" width="540" height="540" fill="#1F242C"/>
<rect y="540" width="540" height="540" fill="#CED5DC"/>
<path d="M270.156 410.1C267.123 410.1 264.206 409.4 261.406 408C258.839 406.6 257.206 404.5 256.506 401.7L183.006 164.4C182.773 163.7 182.656 162.883 182.656 161.95C182.656 160.083 183.356 158.45 184.756 157.05C186.156 155.417 187.906 154.25 190.006 153.55C192.106 152.617 194.206 152.15 196.306 152.15C198.406 152.15 200.273 152.617 201.906 153.55C203.539 154.483 204.706 156 205.406 158.1L270.156 373L334.556 158.1C335.023 156 336.073 154.483 337.706 153.55C339.339 152.617 341.206 152.15 343.306 152.15C345.406 152.15 347.506 152.617 349.606 153.55C351.706 154.483 353.456 155.65 354.856 157.05C356.489 158.45 357.306 160.2 357.306 162.3C357.306 162.533 357.189 162.883 356.956 163.35C356.956 163.583 356.839 163.933 356.606 164.4L284.156 401.7C283.223 404.5 281.356 406.6 278.556 408C275.989 409.4 273.189 410.1 270.156 410.1Z" fill="white"/>
<path d="M807.875 950.45C792.942 950.45 780.109 948.233 769.375 943.8C758.642 939.133 750.359 933.883 744.525 928.05C738.925 921.983 736.125 916.85 736.125 912.65C736.125 910.783 736.592 908.8 737.525 906.7C738.692 904.6 740.092 902.967 741.725 901.8C743.359 900.4 744.992 899.7 746.625 899.7C748.959 899.7 751.292 901.217 753.625 904.25C756.192 907.05 759.459 910.433 763.425 914.4C767.625 918.133 773.109 921.517 779.875 924.55C786.642 927.35 795.509 928.75 806.475 928.75C817.442 928.75 826.775 927 834.475 923.5C842.175 919.767 848.125 914.4 852.325 907.4C856.525 900.167 858.625 891.183 858.625 880.45C858.625 869.25 856.525 860.267 852.325 853.5C848.125 846.733 842.525 841.133 835.525 836.7C828.759 832.267 821.292 828.533 813.125 825.5C804.959 822.467 796.675 819.317 788.275 816.05C780.109 812.783 772.525 808.817 765.525 804.15C758.525 799.25 752.925 792.95 748.725 785.25C744.525 777.317 742.425 767.283 742.425 755.15C742.425 742.55 744.759 732.167 749.425 724C754.092 715.6 760.042 709.067 767.275 704.4C774.742 699.733 782.792 696.467 791.425 694.6C800.059 692.5 808.459 691.45 816.625 691.45C823.159 691.45 829.809 692.033 836.575 693.2C843.575 694.133 849.992 695.533 855.825 697.4C861.659 699.267 866.325 701.6 869.825 704.4C873.559 706.967 875.425 709.883 875.425 713.15C875.425 714.55 874.959 716.3 874.025 718.4C873.325 720.267 872.275 722.017 870.875 723.65C869.475 725.283 867.609 726.1 865.275 726.1C863.175 726.1 860.259 725.05 856.525 722.95C852.792 720.617 847.659 718.4 841.125 716.3C834.825 713.967 826.542 712.8 816.275 712.8C807.875 712.8 799.709 713.967 791.775 716.3C784.075 718.633 777.775 722.833 772.875 728.9C767.975 734.733 765.525 742.783 765.525 753.05C765.525 762.383 767.625 769.967 771.825 775.8C776.259 781.4 781.859 785.95 788.625 789.45C795.625 792.95 803.209 796.217 811.375 799.25C819.542 802.05 827.709 805.317 835.875 809.05C844.275 812.55 851.859 817.1 858.625 822.7C865.625 828.067 871.225 835.183 875.425 844.05C879.625 852.917 881.725 864.35 881.725 878.35C881.725 894.917 878.575 908.567 872.275 919.3C865.975 929.8 857.225 937.617 846.025 942.75C835.059 947.883 822.342 950.45 807.875 950.45Z" fill="white"/>
</g>
<defs>
<clipPath id="clip0_1_2">
<rect width="1080" height="1080" rx="80" fill="white"/>
</clipPath>
</defs>
</svg>
